<svg width="16" height="16" viewBox="0 0 16 16" fill="none" xmlns="http://www.w3.org/2000/svg">
<mask id="path-1-inside-1" fill="white">
<path fill-rule="evenodd" clip-rule="evenodd" d="M5.76667 7.43333H1.9V1.9H5.76667V7.43333ZM5.76667 14.1V11.9H1.9V14.1H5.76667ZM14.1 14.1V8.56667H10.2333V14.1H14.1ZM10.2333 4.1H14.1V1.9H10.2333V4.1ZM1.5 8.83333C0.947715 8.83333 0.5 8.38562 0.5 7.83333V1.5C0.5 0.947715 0.947714 0.5 1.5 0.5H6.16667C6.71895 0.5 7.16667 0.947715 7.16667 1.5V7.83333C7.16667 8.38562 6.71895 8.83333 6.16667 8.83333H1.5ZM1.5 15.5C0.947715 15.5 0.5 15.0523 0.5 14.5V11.5C0.5 10.9477 0.947714 10.5 1.5 10.5H6.16667C6.71895 10.5 7.16667 10.9477 7.16667 11.5V14.5C7.16667 15.0523 6.71895 15.5 6.16667 15.5H1.5ZM9.83333 15.5C9.28105 15.5 8.83333 15.0523 8.83333 14.5V8.16667C8.83333 7.61438 9.28105 7.16667 9.83333 7.16667H14.5C15.0523 7.16667 15.5 7.61438 15.5 8.16667V14.5C15.5 15.0523 15.0523 15.5 14.5 15.5H9.83333ZM8.83333 1.5C8.83333 0.947715 9.28105 0.5 9.83333 0.5H14.5C15.0523 0.5 15.5 0.947715 15.5 1.5V4.5C15.5 5.05228 15.0523 5.5 14.5 5.5H9.83333C9.28105 5.5 8.83333 5.05228 8.83333 4.5V1.5Z"/>
</mask>
<path fill-rule="evenodd" clip-rule="evenodd" d="M5.76667 7.43333H1.9V1.9H5.76667V7.43333ZM5.76667 14.1V11.9H1.9V14.1H5.76667ZM14.1 14.1V8.56667H10.2333V14.1H14.1ZM10.2333 4.1H14.1V1.9H10.2333V4.1ZM1.5 8.83333C0.947715 8.83333 0.5 8.38562 0.5 7.83333V1.5C0.5 0.947715 0.947714 0.5 1.5 0.5H6.16667C6.71895 0.5 7.16667 0.947715 7.16667 1.5V7.83333C7.16667 8.38562 6.71895 8.83333 6.16667 8.83333H1.5ZM1.5 15.5C0.947715 15.5 0.5 15.0523 0.5 14.5V11.5C0.5 10.9477 0.947714 10.5 1.5 10.5H6.16667C6.71895 10.5 7.16667 10.9477 7.16667 11.5V14.5C7.16667 15.0523 6.71895 15.5 6.16667 15.5H1.5ZM9.83333 15.5C9.28105 15.5 8.83333 15.0523 8.83333 14.5V8.16667C8.83333 7.61438 9.28105 7.16667 9.83333 7.16667H14.5C15.0523 7.16667 15.5 7.61438 15.5 8.16667V14.5C15.5 15.0523 15.0523 15.5 14.5 15.5H9.83333ZM8.83333 1.5C8.83333 0.947715 9.28105 0.5 9.83333 0.5H14.5C15.0523 0.5 15.5 0.947715 15.5 1.5V4.5C15.5 5.05228 15.0523 5.5 14.5 5.5H9.83333C9.28105 5.5 8.83333 5.05228 8.83333 4.5V1.5Z" fill="#C2CFE0"/>
<path d="M5.76667 7.43333V8.83333H7.16667V7.43333H5.76667ZM1.9 7.43333H0.5V8.83333H1.9V7.43333ZM1.9 1.9V0.5H0.5V1.9H1.9ZM5.76667 1.9H7.16667V0.5H5.76667V1.9ZM5.76667 11.9H7.16667V10.5H5.76667V11.9ZM5.76667 14.1V15.5H7.16667V14.1H5.76667ZM1.9 11.9V10.5H0.5V11.9H1.9ZM1.9 14.1H0.5V15.5H1.9V14.1ZM14.1 8.56667H15.5V7.16667H14.1V8.56667ZM14.1 14.1V15.5H15.5V14.1H14.1ZM10.2333 8.56667V7.16667H8.83333V8.56667H10.2333ZM10.2333 14.1H8.83333V15.5H10.2333V14.1ZM14.1 4.1V5.5H15.5V4.1H14.1ZM10.2333 4.1H8.83333V5.5H10.2333V4.1ZM14.1 1.9H15.5V0.5H14.1V1.9ZM10.2333 1.9V0.5H8.83333V1.9H10.2333ZM5.76667 6.03333H1.9V8.83333H5.76667V6.03333ZM3.3 7.43333V1.9H0.5V7.43333H3.3ZM1.9 3.3H5.76667V0.5H1.9V3.3ZM4.36667 1.9V7.43333H7.16667V1.9H4.36667ZM4.36667 11.9V14.1H7.16667V11.9H4.36667ZM1.9 13.3H5.76667V10.5H1.9V13.3ZM3.3 14.1V11.9H0.5V14.1H3.3ZM5.76667 12.7H1.9V15.5H5.76667V12.7ZM12.7 8.56667V14.1H15.5V8.56667H12.7ZM10.2333 9.96667H14.1V7.16667H10.2333V9.96667ZM11.6333 14.1V8.56667H8.83333V14.1H11.6333ZM14.1 12.7H10.2333V15.5H14.1V12.7ZM14.1 2.7H10.2333V5.5H14.1V2.7ZM12.7 1.9V4.1H15.5V1.9H12.7ZM10.2333 3.3H14.1V0.5H10.2333V3.3ZM11.6333 4.1V1.9H8.83333V4.1H11.6333ZM-0.9 7.83333C-0.9 9.15882 0.174518 10.2333 1.5 10.2333V7.43333C1.72091 7.43333 1.9 7.61242 1.9 7.83333H-0.9ZM-0.9 1.5V7.83333H1.9V1.5H-0.9ZM1.5 -0.9C0.174514 -0.9 -0.9 0.174518 -0.9 1.5H1.9C1.9 1.72091 1.72091 1.9 1.5 1.9V-0.9ZM6.16667 -0.9H1.5V1.9H6.16667V-0.9ZM8.56667 1.5C8.56667 0.174515 7.49215 -0.9 6.16667 -0.9V1.9C5.94575 1.9 5.76667 1.72091 5.76667 1.5H8.56667ZM8.56667 7.83333V1.5H5.76667V7.83333H8.56667ZM6.16667 10.2333C7.49215 10.2333 8.56667 9.15881 8.56667 7.83333H5.76667C5.76667 7.61242 5.94575 7.43333 6.16667 7.43333V10.2333ZM1.5 10.2333H6.16667V7.43333H1.5V10.2333ZM-0.9 14.5C-0.9 15.8255 0.174517 16.9 1.5 16.9V14.1C1.72091 14.1 1.9 14.2791 1.9 14.5H-0.9ZM-0.9 11.5V14.5H1.9V11.5H-0.9ZM1.5 9.1C0.174514 9.1 -0.9 10.1745 -0.9 11.5H1.9C1.9 11.7209 1.72091 11.9 1.5 11.9V9.1ZM6.16667 9.1H1.5V11.9H6.16667V9.1ZM8.56667 11.5C8.56667 10.1745 7.49215 9.1 6.16667 9.1V11.9C5.94575 11.9 5.76667 11.7209 5.76667 11.5H8.56667ZM8.56667 14.5V11.5H5.76667V14.5H8.56667ZM6.16667 16.9C7.49215 16.9 8.56667 15.8255 8.56667 14.5H5.76667C5.76667 14.2791 5.94575 14.1 6.16667 14.1V16.9ZM1.5 16.9H6.16667V14.1H1.5V16.9ZM7.43333 14.5C7.43333 15.8255 8.50785 16.9 9.83333 16.9V14.1C10.0542 14.1 10.2333 14.2791 10.2333 14.5H7.43333ZM7.43333 8.16667V14.5H10.2333V8.16667H7.43333ZM9.83333 5.76667C8.50785 5.76667 7.43333 6.84118 7.43333 8.16667H10.2333C10.2333 8.38758 10.0542 8.56667 9.83333 8.56667V5.76667ZM14.5 5.76667H9.83333V8.56667H14.5V5.76667ZM16.9 8.16667C16.9 6.84118 15.8255 5.76667 14.5 5.76667V8.56667C14.2791 8.56667 14.1 8.38758 14.1 8.16667H16.9ZM16.9 14.5V8.16667H14.1V14.5H16.9ZM14.5 16.9C15.8255 16.9 16.9 15.8255 16.9 14.5H14.1C14.1 14.2791 14.2791 14.1 14.5 14.1V16.9ZM9.83333 16.9H14.5V14.1H9.83333V16.9ZM9.83333 -0.9C8.50785 -0.9 7.43333 0.174518 7.43333 1.5H10.2333C10.2333 1.72091 10.0542 1.9 9.83333 1.9V-0.9ZM14.5 -0.9H9.83333V1.9H14.5V-0.9ZM16.9 1.5C16.9 0.174517 15.8255 -0.9 14.5 -0.9V1.9C14.2791 1.9 14.1 1.72091 14.1 1.5H16.9ZM16.9 4.5V1.5H14.1V4.5H16.9ZM14.5 6.9C15.8255 6.9 16.9 5.82548 16.9 4.5H14.1C14.1 4.27909 14.2791 4.1 14.5 4.1V6.9ZM9.83333 6.9H14.5V4.1H9.83333V6.9ZM7.43333 4.5C7.43333 5.82548 8.50785 6.9 9.83333 6.9V4.1C10.0542 4.1 10.2333 4.27909 10.2333 4.5H7.43333ZM7.43333 1.5V4.5H10.2333V1.5H7.43333Z" fill="#C2CFE0" mask="url(#path-1-inside-1)"/>
</svg>
