<svg width="12" height="12" viewBox="0 0 12 12" fill="none" xmlns="http://www.w3.org/2000/svg">
<path d="M1.49497 0.505025C1.22161 0.231658 0.778392 0.231658 0.505025 0.505025C0.231658 0.778392 0.231658 1.22161 0.505025 1.49497L1.49497 0.505025ZM10.505 11.495C10.7784 11.7683 11.2216 11.7683 11.495 11.495C11.7683 11.2216 11.7683 10.7784 11.495 10.505L10.505 11.495ZM11.495 1.49497C11.7683 1.22161 11.7683 0.778392 11.495 0.505025C11.2216 0.231658 10.7784 0.231658 10.505 0.505025L11.495 1.49497ZM0.505025 10.505C0.231658 10.7784 0.231658 11.2216 0.505025 11.495C0.778392 11.7683 1.22161 11.7683 1.49497 11.495L0.505025 10.505ZM0.505025 1.49497L10.505 11.495L11.495 10.505L1.49497 0.505025L0.505025 1.49497ZM10.505 0.505025L0.505025 10.505L1.49497 11.495L11.495 1.49497L10.505 0.505025Z" fill="white"/>
</svg>
