<svg width="90" height="90" viewBox="0 0 90 90" fill="none" xmlns="http://www.w3.org/2000/svg">
<path d="M45 0C20.1486 0 0 20.1486 0 45C0 69.8542 20.1486 90 45 90C69.8542 90 90 69.857 90 45C90 20.1486 69.8539 0 45 0ZM45 81.5624C24.8064 81.5624 8.43764 65.1936 8.43764 45C8.43764 24.8064 24.8064 8.43764 45 8.43764C65.1936 8.43764 81.5624 24.8064 81.5624 45C81.5624 65.1936 65.1936 81.5624 45 81.5624ZM45.0028 19.7352C41.7798 19.7352 39.3411 21.4172 39.3411 24.134V49.0527C39.3411 51.7723 41.7795 53.4487 45.0028 53.4487C48.1472 53.4487 50.6645 51.7022 50.6645 49.0527V24.134C50.6642 21.4817 48.1472 19.7352 45.0028 19.7352ZM45.0028 59.0625C41.9063 59.0625 39.3861 61.5827 39.3861 64.6817C39.3861 67.7755 41.9063 70.2956 45.0028 70.2956C48.0994 70.2956 50.6167 67.7755 50.6167 64.6817C50.6164 61.5824 48.0994 59.0625 45.0028 59.0625Z" fill="#E2574C"/>
</svg>
