<svg width="16" height="17" viewBox="0 0 16 17" fill="none" xmlns="http://www.w3.org/2000/svg">
<path d="M11.1643 2.91691C10.8151 2.75103 10.3975 2.89963 10.2316 3.24883C10.0658 3.59803 10.2144 4.01559 10.5636 4.18148L11.1643 2.91691ZM5.4364 4.18148C5.7856 4.01559 5.93421 3.59803 5.76832 3.24883C5.60243 2.89963 5.18487 2.75103 4.83567 2.91691L5.4364 4.18148ZM13.9825 9.58865C13.9825 12.8927 11.304 15.5712 7.99998 15.5712V16.9712C12.0772 16.9712 15.3825 13.6659 15.3825 9.58865H13.9825ZM7.99998 15.5712C4.69592 15.5712 2.01744 12.8927 2.01744 9.58865H0.617444C0.617444 13.6659 3.92272 16.9712 7.99998 16.9712V15.5712ZM10.5636 4.18148C12.5864 5.14242 13.9825 7.20319 13.9825 9.58865H15.3825C15.3825 6.6426 13.6569 4.101 11.1643 2.91691L10.5636 4.18148ZM2.01744 9.58865C2.01744 7.20319 3.41358 5.14242 5.4364 4.18148L4.83567 2.91691C2.34311 4.101 0.617444 6.6426 0.617444 9.58865H2.01744Z" fill="#C2CFE0"/>
<path d="M8.7 1.5C8.7 1.1134 8.3866 0.8 8 0.8C7.6134 0.8 7.3 1.1134 7.3 1.5H8.7ZM7.3 6C7.3 6.3866 7.6134 6.7 8 6.7C8.3866 6.7 8.7 6.3866 8.7 6H7.3ZM7.3 1.5V6H8.7V1.5H7.3Z" fill="#C2CFE0"/>
</svg>
