<svg width="18" height="18" viewBox="0 0 18 18" fill="none" xmlns="http://www.w3.org/2000/svg">
<path d="M8.16669 14H9.83335V12.3334H8.16669V14ZM9.00002 0.666687C4.40002 0.666687 0.666687 4.40002 0.666687 9.00002C0.666687 13.6 4.40002 17.3334 9.00002 17.3334C13.6 17.3334 17.3334 13.6 17.3334 9.00002C17.3334 4.40002 13.6 0.666687 9.00002 0.666687ZM9.00002 15.6667C5.32502 15.6667 2.33335 12.675 2.33335 9.00002C2.33335 5.32502 5.32502 2.33335 9.00002 2.33335C12.675 2.33335 15.6667 5.32502 15.6667 9.00002C15.6667 12.675 12.675 15.6667 9.00002 15.6667ZM9.00002 4.00002C7.15835 4.00002 5.66669 5.49169 5.66669 7.33335H7.33335C7.33335 6.41669 8.08335 5.66669 9.00002 5.66669C9.91669 5.66669 10.6667 6.41669 10.6667 7.33335C10.6667 9.00002 8.16669 8.79169 8.16669 11.5H9.83335C9.83335 9.62502 12.3334 9.41669 12.3334 7.33335C12.3334 5.49169 10.8417 4.00002 9.00002 4.00002Z" fill="#C2CFE0"/>
</svg>
