<svg width="108" height="108" viewBox="0 0 108 108" fill="none" xmlns="http://www.w3.org/2000/svg">
<path d="M69.4067 16.3485L60.6874 0H11.1047C8.35016 0 6.11719 2.23297 6.11719 4.98752V95.717C6.11719 98.4716 8.35016 100.705 11.1047 100.705H85.7543V25.067L69.4067 16.3485Z" fill="#EFEDEE"/>
<path d="M60.6875 0V19.9369C60.6875 22.7705 62.9839 25.067 65.8176 25.067H85.7545L60.6875 0Z" fill="#D9D7D8"/>
<path d="M85.7544 57.712C83.7249 57.2563 81.6164 57.0141 79.4518 57.0141C63.5977 57.0141 50.6992 69.9126 50.6992 85.7667C50.6992 91.2338 52.2326 96.3482 54.8924 100.705H85.7544V57.712Z" fill="#D9D7D8"/>
<path d="M101.685 85.7667C101.685 98.0456 91.7308 108 79.4519 108C67.1722 108 57.2178 98.0456 57.2178 85.7667C57.2178 73.487 67.1722 63.5334 79.4519 63.5334C91.7308 63.5334 101.685 73.487 101.685 85.7667Z" fill="#5BB68D"/>
<path d="M17.9814 17.7805C17.0808 17.7805 16.3516 17.0513 16.3516 16.1507V13.3599C16.3516 12.4601 17.0808 11.7301 17.9814 11.7301C18.8812 11.7301 19.6112 12.4601 19.6112 13.3599V16.1507C19.6112 17.0513 18.8812 17.7805 17.9814 17.7805Z" fill="#464C51"/>
<path d="M48.8227 17.7805C47.9229 17.7805 47.1929 17.0513 47.1929 16.1507V13.3599C47.1929 12.4601 47.9229 11.7301 48.8227 11.7301C49.7225 11.7301 50.4525 12.4601 50.4525 13.3599V16.1507C50.4525 17.0513 49.7225 17.7805 48.8227 17.7805Z" fill="#464C51"/>
<path d="M33.4028 14.3267C35.3564 14.3267 37.1914 15.1432 38.4356 16.5679C39.028 17.2452 38.9588 18.2752 38.2815 18.8676C37.6034 19.4601 36.5742 19.3908 35.9818 18.7127C35.3556 17.9967 34.4154 17.5863 33.4028 17.5863C32.3893 17.5863 31.4499 17.9967 30.8237 18.7127C30.2313 19.3908 29.2021 19.4601 28.524 18.8676C27.8467 18.2752 27.7775 17.2452 28.3699 16.5679C29.6149 15.1432 31.4491 14.3267 33.4028 14.3267Z" fill="#464C51"/>
<path d="M66.1823 42.1002H17.9814C17.0808 42.1002 16.3516 41.3709 16.3516 40.4703C16.3516 39.5706 17.0808 38.8405 17.9814 38.8405H66.1823C67.082 38.8405 67.8121 39.5706 67.8121 40.4703C67.8121 41.3709 67.082 42.1002 66.1823 42.1002Z" fill="#464C51"/>
<path d="M66.1823 53.8715H17.9814C17.0808 53.8715 16.3516 53.1414 16.3516 52.2416C16.3516 51.341 17.0808 50.6118 17.9814 50.6118H66.1823C67.082 50.6118 67.8121 51.341 67.8121 52.2416C67.8121 53.1414 67.082 53.8715 66.1823 53.8715Z" fill="#464C51"/>
<path d="M48.7445 65.642H17.9814C17.0808 65.642 16.3516 64.9119 16.3516 64.0121C16.3516 63.1124 17.0808 62.3823 17.9814 62.3823H48.7445C49.6443 62.3823 50.3743 63.1124 50.3743 64.0121C50.3743 64.9119 49.6443 65.642 48.7445 65.642Z" fill="#464C51"/>
<path d="M48.8228 77.4124H17.9814C17.0808 77.4124 16.3516 76.6832 16.3516 75.7826C16.3516 74.8828 17.0808 74.1528 17.9814 74.1528H48.8228C49.7225 74.1528 50.4526 74.8828 50.4526 75.7826C50.4526 76.6832 49.7225 77.4124 48.8228 77.4124Z" fill="#464C51"/>
<path d="M70.7866 94.3268C69.7378 93.278 69.7378 91.5775 70.7866 90.5287L83.5287 77.7866C84.5775 76.7378 86.278 76.7378 87.3268 77.7866C88.3756 78.8354 88.3756 80.5359 87.3268 81.5847L74.5847 94.3268C73.5359 95.3756 71.8354 95.3756 70.7866 94.3268Z" fill="white"/>
<path d="M70.7866 77.7866C71.8354 76.7378 73.5359 76.7378 74.5847 77.7866L87.3268 90.5287C88.3756 91.5775 88.3756 93.278 87.3268 94.3268C86.278 95.3756 84.5775 95.3756 83.5287 94.3268L70.7866 81.5847C69.7378 80.5359 69.7378 78.8354 70.7866 77.7866Z" fill="white"/>
</svg>
