<svg width="18" height="18" viewBox="0 0 18 18" fill="none" xmlns="http://www.w3.org/2000/svg">
<path d="M1.49497 0.505025C1.22161 0.231658 0.778392 0.231658 0.505025 0.505025C0.231658 0.778392 0.231658 1.22161 0.505025 1.49497L1.49497 0.505025ZM16.505 17.495C16.7784 17.7683 17.2216 17.7683 17.495 17.495C17.7683 17.2216 17.7683 16.7784 17.495 16.505L16.505 17.495ZM17.495 1.49497C17.7683 1.22161 17.7683 0.778392 17.495 0.505025C17.2216 0.231658 16.7784 0.231658 16.505 0.505025L17.495 1.49497ZM0.505025 16.505C0.231658 16.7784 0.231658 17.2216 0.505025 17.495C0.778392 17.7683 1.22161 17.7683 1.49497 17.495L0.505025 16.505ZM0.505025 1.49497L16.505 17.495L17.495 16.505L1.49497 0.505025L0.505025 1.49497ZM16.505 0.505025L0.505025 16.505L1.49497 17.495L17.495 1.49497L16.505 0.505025Z" fill="#C2CFE0"/>
</svg>
