<svg width="60" height="60" viewBox="0 0 60 60" fill="none" xmlns="http://www.w3.org/2000/svg">
<g clip-path="url(#clip0)">
<path d="M29.9994 0.000793457C13.4312 0.000793457 0 13.432 0 30.0002C0 46.5684 13.4312 59.9996 29.9994 59.9996C46.5676 59.9996 59.9988 46.5684 59.9988 30.0002C59.9988 13.432 46.5676 0.000793457 29.9994 0.000793457ZM29.9994 44.1893C22.1629 44.1893 15.8104 37.8368 15.8104 30.0002C15.8104 22.1636 22.1629 15.8111 29.9994 15.8111C37.836 15.8111 44.1885 22.1636 44.1885 30.0002C44.1885 37.8368 37.836 44.1893 29.9994 44.1893Z" fill="#E8E8E8"/>
<path d="M4.54178 30.0005C4.54178 14.1964 16.7631 1.24645 32.271 0.0855908C31.5216 0.0292236 30.7649 0.00109863 30.0009 0.00109863C13.4327 0.00109863 0.00146484 13.4323 0.00146484 30.0005C0.00146484 46.5687 13.4327 59.9999 30.0009 59.9999C30.7649 59.9999 31.5216 59.9718 32.271 59.9154C16.7631 58.7546 4.54178 45.8046 4.54178 30.0005ZM34.5412 15.8114C33.7686 15.8114 33.0106 15.8726 32.271 15.9939C39.0289 17.0787 44.1899 22.9366 44.1899 30.0005C44.1899 37.0645 39.0289 42.9223 32.271 44.0071C33.0106 44.1283 33.7686 44.1896 34.5412 44.1896C42.3778 44.1896 48.7303 37.8371 48.7303 30.0005C48.7303 22.1639 42.3778 15.8114 34.5412 15.8114Z" fill="#C1C0BF"/>
<path d="M59.9996 30.0006C56.347 28.7491 52.4716 28.3904 48.6904 28.923C47.1684 29.1374 45.6611 29.4961 44.1905 30.0006C44.1905 37.0645 39.0294 42.9211 32.2728 44.0072H32.2716C31.5321 44.1284 30.7741 44.1896 30.0015 44.1896H30.0003C28.2861 49.194 28.2468 54.6159 29.8803 59.64C29.9195 59.76 29.9599 59.8788 30.0003 59.9987V59.9999H30.0015C30.135 59.9999 30.2696 59.9987 30.4031 59.9974C30.5108 59.9962 30.6198 59.9938 30.7276 59.9913C30.8732 59.9877 31.0177 59.9839 31.1611 59.9779C31.2847 59.9729 31.4071 59.968 31.5309 59.9619C31.5419 59.9607 31.5542 59.9607 31.5652 59.9594C31.6864 59.9534 31.8077 59.9473 31.9277 59.9386C32.0428 59.9325 32.1578 59.9239 32.2718 59.9153C47.7794 58.7546 60.0008 45.8047 60.0008 30.0006H59.9996ZM30.0002 0.00245361V0.00128174C13.432 0.00245361 0.00195312 13.4324 0.00195312 30.0006H0.003125C1.49211 29.49 3.01895 29.1287 4.56055 28.9145C8.32215 28.3941 12.1767 28.7565 15.8122 30.0006C15.8122 22.164 22.1635 15.8127 30.0001 15.8115C28.2859 10.8071 28.2466 5.38523 29.8801 0.361165C29.9193 0.241165 29.9598 0.122454 30.0002 0.00245361Z" fill="#FF605D"/>
<path d="M30.0002 0.00245361V0.00128174C13.432 0.00245361 0.00195312 13.4324 0.00195312 30.0006H0.003125C1.49211 29.49 3.01895 29.1287 4.56055 28.9145C5.07746 14.4217 15.8735 2.54683 29.8802 0.361165C29.9193 0.241165 29.9598 0.122454 30.0002 0.00245361ZM48.6904 28.923C47.1684 29.1374 45.6611 29.4961 44.1905 30.0006C44.1905 37.0645 39.0294 42.9211 32.2728 44.0072C33.0124 44.1284 33.7691 44.1897 34.5418 44.1897C42.3784 44.1897 48.7309 37.8372 48.7309 30.0006C48.7309 29.6381 48.7174 29.2794 48.6904 28.923Z" fill="#E04848"/>
</g>
<defs>
<clipPath id="clip0">
<rect width="60" height="60" fill="white"/>
</clipPath>
</defs>
</svg>
