<svg width="20" height="20" viewBox="0 0 20 20" fill="none" xmlns="http://www.w3.org/2000/svg">
<path d="M7.49996 10.8334C9.34091 10.8334 10.8333 9.34097 10.8333 7.50002C10.8333 5.65907 9.34091 4.16669 7.49996 4.16669C5.65901 4.16669 4.16663 5.65907 4.16663 7.50002C4.16663 9.34097 5.65901 10.8334 7.49996 10.8334Z" fill="#C2CFE0"/>
<path d="M7.50004 12.5C5.27504 12.5 0.833374 13.6167 0.833374 15.8334V17.5H14.1667V15.8334C14.1667 13.6167 9.72504 12.5 7.50004 12.5ZM13.9667 4.46669L12.5667 5.87502C13.2667 6.85835 13.2667 8.13335 12.5667 9.11669L13.9667 10.525C15.65 8.84169 15.65 6.30002 13.9667 4.46669ZM16.725 1.66669L15.3667 3.02502C17.675 5.54169 17.675 9.32502 15.3667 11.975L16.725 13.3334C19.975 10.0917 19.9834 5.04169 16.725 1.66669Z" fill="#C2CFE0"/>
</svg>
