<svg width="90" height="90" viewBox="0 0 90 90" fill="none" xmlns="http://www.w3.org/2000/svg">
<path d="M90 45C90 69.8525 69.8525 90 45 90C20.1475 90 0 69.8525 0 45C0 20.1475 20.1475 0 45 0C69.8525 0 90 20.1475 90 45Z" fill="#26B99A"/>
<path d="M45 0C45.7805 0 46.5564 0.0202148 47.3275 0.0588867C23.5568 1.2709 4.65521 20.9282 4.65521 45C4.65521 69.0718 23.5568 88.7291 47.3277 89.9411C46.5564 89.9798 45.7805 90 45 90C20.1475 90 0 69.8525 0 45C0 20.1475 20.1475 0 45 0Z" fill="#7DD5C3"/>
<path d="M40.3443 60.6006H40.3257C39.0377 60.596 37.8118 60.0358 36.9631 59.066L28.0236 48.8494C27.2043 47.9137 26.7993 46.7142 26.8816 45.4728C26.9638 44.233 27.5254 43.0987 28.4611 42.281C30.393 40.5896 33.3398 40.7867 35.0295 42.7185L40.3582 48.8556L59.6322 27.1578C61.3361 25.2367 64.2843 25.066 66.2038 26.7715C67.1334 27.5969 67.6857 28.736 67.7586 29.9774C67.8316 31.2171 67.4157 32.4135 66.5902 33.343L43.7022 59.0922C42.8502 60.0512 41.6259 60.6006 40.3443 60.6006Z" fill="white"/>
<path d="M36.2682 11.9691C35.5761 11.9691 34.9445 11.5036 34.7661 10.8022C34.5536 9.97043 35.0547 9.12475 35.8849 8.91381C38.8782 8.15039 41.9445 7.76086 44.9982 7.75928H44.9997C45.8563 7.75928 46.5515 8.45291 46.5515 9.30949C46.5531 10.1661 45.8595 10.8613 45.0013 10.8627C42.2052 10.8643 39.3965 11.2211 36.6531 11.9209C36.5241 11.9534 36.3954 11.9691 36.2682 11.9691Z" fill="white"/>
<path d="M13.2596 30.2142C13.0207 30.2142 12.777 30.1583 12.5505 30.0419C11.7886 29.6494 11.4891 28.7137 11.8816 27.9517C15.5375 20.8526 21.5798 14.9994 28.8948 11.4692C29.6659 11.0983 30.5955 11.421 30.9679 12.1938C31.3388 12.9649 31.0161 13.8929 30.2434 14.2653C23.5322 17.5038 17.9895 22.8681 14.6408 29.3729C14.3643 29.9069 13.8228 30.2142 13.2596 30.2142Z" fill="white"/>
<path d="M9.31059 46.5518C8.45242 46.5518 7.75879 45.8565 7.75879 45C7.76037 41.6002 8.21969 38.2282 9.12268 34.9788C9.35225 34.1534 10.2088 33.6723 11.0345 33.9004C11.8599 34.13 12.3426 34.985 12.1129 35.8106C11.2843 38.79 10.8638 41.8811 10.8622 45C10.8622 45.8581 10.167 46.5518 9.31059 46.5518Z" fill="white"/>
<path d="M45 82.2416C44.1435 82.2416 43.4482 81.548 43.4482 80.6898C43.4482 79.8332 44.1419 79.138 45 79.138C47.9871 79.1364 50.9773 78.7314 53.8868 77.9355C54.7061 77.7073 55.5657 78.1962 55.7923 79.0232C56.0189 79.8487 55.5316 80.7021 54.7046 80.9287C51.5296 81.7977 48.2648 82.24 45 82.2416Z" fill="white"/>
<path d="M61.4933 78.1452C60.9347 78.1452 60.3947 77.8427 60.1169 77.3134C59.7197 76.5546 60.0115 75.6173 60.7717 75.2186C67.4442 71.7195 72.841 66.0991 75.9662 59.3911C76.3278 58.6136 77.2526 58.2754 78.0285 58.64C78.8044 59.0016 79.141 59.9232 78.7796 60.7007C75.3689 68.0232 69.4848 74.1541 62.2119 77.9682C61.982 78.0877 61.7353 78.1452 61.4933 78.1452Z" fill="white"/>
<path d="M79.7486 54.7352C79.6306 54.7352 79.5127 54.7227 79.3931 54.6948C78.5584 54.4977 78.04 53.6629 78.2356 52.828C78.8331 50.2893 79.1356 47.6545 79.1372 44.998C79.1388 44.1414 79.834 43.4478 80.689 43.4478H80.6906C81.5487 43.4493 82.2424 44.1446 82.2408 45.001C82.2392 47.8948 81.9087 50.7671 81.2585 53.5385C81.0893 54.2527 80.4531 54.7352 79.7486 54.7352Z" fill="white"/>
<path d="M44.9999 0C44.2194 0 43.4435 0.0202148 42.6724 0.0588867C66.4431 1.2709 85.3447 20.9282 85.3447 45C85.3447 69.0718 66.4431 88.7291 42.6724 89.9411C43.4435 89.9798 44.2194 90 44.9999 90C69.8524 90 89.9999 69.8525 89.9999 45C89.9999 20.1475 69.8524 0 44.9999 0Z" fill="#1D8B74"/>
</svg>
