<svg width="28" height="37" viewBox="0 0 28 37" fill="none" xmlns="http://www.w3.org/2000/svg">
<path d="M25.6851 30.3544C24.6614 29.5906 22.8032 28.3229 20.7795 27.3859C18.7559 26.4567 17.5669 24.2756 17.8898 22.0788C17.8898 22.0473 17.8977 22.0158 17.9055 21.9764C17.9055 21.9764 22.5118 18.8583 21.874 15.8189C21.874 15.8189 22.0158 15.8268 22.2284 15.8111C24.2599 15.6221 24.3858 12.5985 22.378 12.2756C22.3622 12.2756 22.3386 12.2678 22.3229 12.2678L22.2599 11.9371C22.874 9.78745 24.3701 3.27564 19.8425 3.90556C19.8425 3.90556 16.5906 -1.47239 9.71655 1.11816C2.83466 3.70084 4.62994 9.86619 4.62994 9.86619L5.48033 12.3229C3.62994 12.7796 3.80317 15.6378 5.77167 15.8189C5.98427 15.8347 6.13387 15.8268 6.13387 15.8268C5.48821 18.8662 10.0945 21.9843 10.0945 21.9843C10.1024 22.0237 10.1024 22.0552 10.1103 22.0867C10.4252 24.2835 9.23624 26.4646 7.22049 27.3937C5.18899 28.3308 3.3386 29.6063 2.31498 30.3623C1.7008 30.8111 1.1575 31.3544 0.740173 31.9922C4.28348 35.1024 8.92128 37 14 37C19.0866 37 23.7244 35.1024 27.252 31.9764C26.8425 31.3465 26.2992 30.8032 25.6851 30.3544Z" fill="#41596B"/>
</svg>
