<svg width="40" height="28" viewBox="0 0 40 28" fill="none" xmlns="http://www.w3.org/2000/svg">
<path d="M4.16664 0.666748H35.8333C38.1345 0.666748 39.9999 2.53222 39.9999 4.83339V23.1668C39.9999 25.4679 38.1345 27.3334 35.8333 27.3334H4.16664C1.86547 27.3335 0 25.468 0 23.1668V4.83347C0 2.53222 1.86547 0.666748 4.16664 0.666748Z" fill="#2196F3"/>
<path d="M40 5.6665H0V12.3331H40V5.6665Z" fill="#455A64"/>
<path d="M12.5 19H5.83336C5.37313 19 5 18.6268 5 18.1666C5 17.7064 5.37313 17.3333 5.83336 17.3333H12.5C12.9602 17.3333 13.3334 17.7064 13.3334 18.1666C13.3334 18.6268 12.9602 19 12.5 19Z" fill="#FAFAFA"/>
<path d="M17.5 22.3335H5.83336C5.37313 22.3335 5 21.9603 5 21.5001C5 21.0399 5.37313 20.6667 5.83336 20.6667H17.5C17.9602 20.6667 18.3334 21.0399 18.3334 21.5001C18.3334 21.9603 17.9602 22.3335 17.5 22.3335Z" fill="#FAFAFA"/>
</svg>
