<svg width="45" height="32" viewBox="0 0 45 32" fill="none" xmlns="http://www.w3.org/2000/svg">
<path d="M15.9763 0C7.07813 0 0 7.18987 0 16C0 24.9114 7.17926 32 15.9763 32C24.7734 32 31.9526 24.8101 31.9526 16C31.9526 7.18987 24.7734 0 15.9763 0ZM15.9763 21.9747C12.7406 21.9747 10.0105 19.2405 10.0105 16C10.0105 12.7595 12.7406 10.0253 15.9763 10.0253C19.212 10.0253 21.9421 12.7595 21.9421 16C21.8412 19.2405 19.212 21.9747 15.9763 21.9747Z" fill="#8B3FFD"/>
<path d="M44.8955 4.6582V27.9493H39.233L31.9526 4.6582H44.8955Z" fill="#8B3FFD"/>
</svg>
