<svg width="22" height="26" viewBox="0 0 22 26" fill="none" xmlns="http://www.w3.org/2000/svg">
<path d="M10.608 0.799998C13.872 0.799998 16.44 1.58 18.312 3.14C20.184 4.7 21.12 6.848 21.12 9.584C21.12 12.32 20.184 14.468 18.312 16.028C16.44 17.588 13.872 18.368 10.608 18.368H4.38V26H0.78V0.799998H10.608ZM10.5 15.236C12.78 15.236 14.52 14.756 15.72 13.796C16.92 12.812 17.52 11.408 17.52 9.584C17.52 7.76 16.92 6.368 15.72 5.408C14.52 4.424 12.78 3.932 10.5 3.932H4.38V15.236H10.5Z" fill="#1B1B1B"/>
<path d="M10.608 0.799998C13.872 0.799998 16.44 1.58 18.312 3.14C20.184 4.7 21.12 6.848 21.12 9.584C21.12 12.32 20.184 14.468 18.312 16.028C16.44 17.588 13.872 18.368 10.608 18.368H4.38V26H0.78V0.799998H10.608ZM10.5 15.236C12.78 15.236 14.52 14.756 15.72 13.796C16.92 12.812 17.52 11.408 17.52 9.584C17.52 7.76 16.92 6.368 15.72 5.408C14.52 4.424 12.78 3.932 10.5 3.932H4.38V15.236H10.5Z" fill="#1B1B1B"/>
<path d="M10.608 0.799998C13.872 0.799998 16.44 1.58 18.312 3.14C20.184 4.7 21.12 6.848 21.12 9.584C21.12 12.32 20.184 14.468 18.312 16.028C16.44 17.588 13.872 18.368 10.608 18.368H4.38V26H0.78V0.799998H10.608ZM10.5 15.236C12.78 15.236 14.52 14.756 15.72 13.796C16.92 12.812 17.52 11.408 17.52 9.584C17.52 7.76 16.92 6.368 15.72 5.408C14.52 4.424 12.78 3.932 10.5 3.932H4.38V15.236H10.5Z" fill="#989898"/>
</svg>
