<svg width="36" height="38" viewBox="0 0 36 38" fill="none" xmlns="http://www.w3.org/2000/svg">
<path d="M35.5058 36.6685C35.3386 36.2048 35.0353 35.8887 34.8158 35.4778C34.2826 34.7718 33.6552 34.1606 33.0279 33.5495C32.8083 33.4757 32.7142 33.265 32.5051 33.1807C32.3692 33.0015 32.1497 32.9067 31.9719 32.7697C31.6164 32.4957 31.2296 32.2639 30.8323 32.0321C30.0795 31.5474 29.1489 31.2418 28.2289 30.9257C27.2356 30.6833 26.1901 30.5042 25.1027 30.3567C24.0258 30.1986 22.9489 30.0511 22.1333 29.6191C21.6629 29.4821 21.3178 29.2187 20.9101 29.0079C20.5337 28.755 20.1259 28.5443 19.8122 28.2282C19.4254 27.9963 19.1849 27.6065 18.8817 27.2903C18.7772 27.0796 18.5994 26.9532 18.5158 26.7213C18.4112 26.6792 18.3798 26.5527 18.3171 26.479C18.2439 26.3947 18.2439 26.2261 18.1185 26.1945C18.0557 26.6265 18.0766 27.1428 18.1185 27.5854C18.1707 27.7751 18.1916 28.0069 18.2439 28.1966C18.2753 28.3651 18.4321 28.6391 18.3694 28.7656C15.1073 28.597 12.7235 27.5538 10.6533 26.1839C9.62865 25.499 8.75039 24.6666 7.93487 23.7709C7.57939 23.2757 7.19253 22.8015 6.87887 22.2536C6.55475 21.7162 6.28291 21.105 5.99016 20.536C5.50921 19.3031 5.05963 18.0387 4.89234 16.4897C4.67277 15.0461 4.72505 13.2021 5.04917 11.8639C5.16418 11.1263 5.40465 10.5046 5.61376 9.86179C5.74968 9.56675 5.89606 9.2717 6.02153 8.96612C6.19927 8.71323 6.29337 8.3655 6.51293 8.14422C7.10889 7.01674 7.9976 6.17376 8.90722 5.3624C9.89004 4.63533 11.0088 4.04524 12.3575 3.68698C13.654 3.39194 15.421 3.33925 16.822 3.64483C19.6659 4.23491 21.8092 5.52045 23.6076 7.16426C25.4268 8.77646 26.8278 10.8207 27.7897 13.3075C28.783 15.6678 29.128 19.3453 28.2393 22.0217C27.8734 21.811 27.5074 21.6108 27.1415 21.4106C26.7024 21.2841 26.2737 21.1366 25.7614 21.0839C25.1445 21.0734 24.5381 21.0839 24.1408 21.2841C24.9459 21.1998 25.5941 21.4211 26.096 21.6108C26.3887 21.7267 26.556 21.8005 26.786 21.9374C27.2356 22.2009 27.6329 22.4432 27.9675 22.8015C28.9189 23.6445 29.5985 24.7614 29.9226 26.2366C29.9226 26.2788 29.9749 26.2682 29.9645 26.1945C30.0063 26.1839 30.0272 26.1523 30.0481 26.1102C30.1004 26.047 30.1631 25.9837 30.2154 25.91C30.3199 25.7835 30.4245 25.6571 30.4977 25.499C30.7173 25.2356 30.895 24.9405 31.0623 24.635C31.4491 24.066 31.7419 23.4127 32.0765 22.791C32.6515 21.4633 33.122 20.0302 33.4148 18.4075C34.0003 14.8037 33.2997 11.3897 32.0765 8.87129C30.8218 6.33182 29.0653 4.29814 26.7965 2.77024C24.5067 1.25288 21.8301 0.135935 18.1498 0.0305631C18.1289 -0.0431975 18.0975 0.0411003 18.0244 0.0305631C16.0797 -0.0326602 14.5113 0.241307 12.9535 0.641722C12.2321 0.884078 11.4793 1.09482 10.8415 1.42148C10.1096 1.66383 9.52409 2.06425 8.85495 2.35929C8.61447 2.59111 8.24853 2.70702 7.9976 2.9283C7.67348 3.08636 7.43301 3.33925 7.10889 3.49731C6.58612 3.96095 6.03198 4.3719 5.51966 4.84607C5.0178 5.30971 4.57868 5.83657 4.09773 6.32128C4.02454 6.48988 3.89907 6.60579 3.77361 6.73223C3.68996 6.89029 3.58541 7.02728 3.44949 7.14319C3.39721 7.33286 3.22993 7.40662 3.16719 7.59629C3.03127 7.70166 2.99991 7.9124 2.84307 8.00724C2.70715 8.34443 2.46668 8.58679 2.30985 8.9029C2.12165 9.20848 1.97527 9.54567 1.78708 9.84071C1.49432 10.5256 1.18066 11.1895 0.940185 11.9271C0.689255 12.6436 0.480147 13.4023 0.333771 14.2242C0.176939 14.9934 0.030563 15.9944 0.0514739 16.8058C-0.0530805 17.1009 0.030563 17.6488 0.0514739 17.9965C0.0514739 18.0597 0.00965214 18.0808 0.00965214 18.123C0.00965214 18.5128 0.114206 18.987 0.135117 19.2294C0.218761 20.125 0.375592 20.9575 0.626523 21.6845C0.783354 22.4959 1.11793 23.1281 1.3584 23.8552C1.72434 24.4664 1.97527 25.1934 2.4144 25.7414C2.73852 26.3841 3.19856 26.8899 3.63769 27.4168C4.10818 27.9226 4.57868 28.4389 5.14327 28.8499C6.17836 29.7561 7.39119 30.4831 8.71903 31.1048C11.197 32.3166 14.8982 33.1069 18.223 32.9067C19.0699 32.7908 19.9272 32.6854 20.701 32.4957C21.4119 32.2323 22.2379 32.0742 23.0952 31.9689C25.0504 31.8424 26.7442 32.0216 28.2498 32.4641C29.7763 32.8751 31.0937 33.4968 32.2333 34.3081C32.8397 34.6664 33.3416 35.13 33.8539 35.5726C34.3767 36.0257 34.7949 36.5842 35.2758 37.09C35.3386 37.2796 35.464 37.4166 35.5581 37.5852C35.6836 37.7222 35.6209 38.0383 35.9241 37.9962C36.1123 37.8065 35.8927 37.5325 35.8822 37.3007C35.694 37.1005 35.6522 36.8371 35.5058 36.6685Z" fill="#FCB316"/>
<path d="M28.0309 25.0379C27.9856 25.0379 27.9743 25.0761 27.9403 25.0889C27.861 25.28 27.895 25.5857 27.9403 25.7768C28.1782 26.3246 28.2575 27.038 28.7786 27.2673C29.0278 27.1782 29.0051 26.7705 28.9938 26.3756C28.8805 25.8915 28.7219 25.4583 28.4614 25.1398C28.2802 25.0634 28.1556 24.936 28.0309 25.0379ZM24.9498 26.4265C24.9498 26.401 24.9158 26.3756 24.9045 26.4265C24.4741 26.3628 24.3268 26.6304 24.1116 26.8214C23.7378 27.9298 24.3381 29.0126 25.3916 28.9999C25.8107 28.8852 26.0713 28.5795 26.1392 28.0572C26.0826 27.1272 25.7314 26.5284 24.9498 26.4265Z" fill="#FCB316"/>
</svg>
