<svg width="90" height="90" viewBox="0 0 90 90" fill="none" xmlns="http://www.w3.org/2000/svg">
<path d="M90 45C90 56.8846 85.391 67.6934 77.8676 75.7371C74.4275 79.4145 70.3775 77.3814 65.8793 79.7405C65.5611 79.9075 65.2394 80.071 64.916 80.231C63.2109 81.0729 61.4443 81.8112 59.625 82.437C57.2273 83.2597 54.74 83.8872 52.1807 84.2968C51.4494 84.4146 50.7129 84.5147 49.9693 84.5956C48.3803 84.7714 46.7631 84.8628 45.1283 84.8681C39.6053 84.8575 36.0701 83.9644 31.1852 82.1327C30.5154 81.8814 29.8545 81.6159 29.2006 81.3329C28.1565 80.8847 27.1317 80.396 26.1297 79.8722C25.3545 79.4679 24.5916 79.0407 23.8428 78.5907C19.5643 76.0243 15.7463 72.7636 12.5488 68.9685C10.5238 66.5708 6.7834 68.9803 5.29102 66.1924C1.91426 59.8764 0 52.6623 0 45C0 20.148 20.148 0 45 0C69.852 0 90 20.148 90 45Z" fill="#E4F6FF"/>
<path d="M52.1807 65.772V86.6245C49.8428 86.9561 47.4433 87.1282 45 87.1282C36.5449 87.1282 28.6348 85.072 21.876 81.496V65.772H52.1807Z" fill="#26457D"/>
<path d="M73.1568 35.292H69.2859C62.7182 35.292 57.3942 40.6161 57.3942 47.1838V58.7228C57.3942 65.2905 62.7182 70.6145 69.2859 70.6145H73.1568C79.7245 70.6145 85.0486 65.2905 85.0486 58.7228V47.1838C85.0486 40.6161 79.7245 35.292 73.1568 35.292Z" fill="#FFE07D"/>
<path d="M75.0115 70.468C74.4068 70.5645 73.7868 70.6128 73.157 70.6128H69.2859C62.7181 70.6128 57.3942 65.289 57.3942 58.7211V47.1828C57.3942 40.6149 62.7181 35.291 69.2859 35.291H73.1572C73.787 35.291 74.407 35.3394 75.0117 35.4359C70.731 36.1042 67.2075 39.0578 65.7278 43.0101C65.241 44.3082 64.9744 45.7145 64.9744 47.1826V58.7209C64.9742 64.6593 69.3244 69.5794 75.0115 70.468Z" fill="#FFC250"/>
<path d="M77.8676 75.7371C74.4268 79.4137 70.3774 82.5128 65.8795 84.8728C63.8787 85.9226 61.7892 84.4367 59.625 85.1797V82.4572C59.625 78.0662 63.1846 74.5049 67.5773 74.5049H73.6154C75.1799 74.5049 76.6371 74.9566 77.8676 75.7371Z" fill="#FFE07D"/>
<path d="M72.8701 74.5049C68.4773 74.5049 64.916 78.0645 64.916 82.4572V85.3629C63.2109 86.2049 61.4443 86.9432 59.625 87.5689V82.4572C59.625 78.0645 63.1846 74.5049 67.5773 74.5049H72.8701Z" fill="#FFC250"/>
<path d="M74.1591 65.6255V75.0479C74.1591 76.0419 73.756 76.9416 73.1046 77.5918C72.4544 78.2432 71.5547 78.6463 70.5607 78.6463C69.8606 78.6463 69.207 78.4468 68.6554 78.1C67.639 77.4645 66.9623 76.3348 66.9623 75.0479V65.6255H74.1591Z" fill="#FFDDCE"/>
<path d="M74.1592 65.626V74.6061C73.6691 74.675 73.1694 74.71 72.6603 74.71C70.5694 74.71 68.6163 74.1159 66.9625 73.0868V65.626H74.1592Z" fill="#FFCBBE"/>
<path d="M68.6555 69.2837V78.1004C67.6392 77.4649 66.9624 76.3352 66.9624 75.0483V69.2837H68.6555Z" fill="#FFCBBE"/>
<path d="M84.1562 59.358H60.2454C58.6975 59.358 57.4424 58.1031 57.4424 56.555C57.4424 55.007 58.6973 53.752 60.2454 53.752H84.156C85.704 53.752 86.959 55.0069 86.959 56.555C86.959 58.1031 85.7041 59.358 84.1562 59.358Z" fill="#FFCBBE"/>
<path d="M60.2455 57.7523C59.5853 57.7523 59.0481 57.2151 59.0481 56.5548C59.0481 55.8946 59.5853 55.3574 60.2455 55.3574H84.1562C84.8164 55.3574 85.3536 55.8946 85.3536 56.5548C85.3536 57.2151 84.8164 57.7523 84.1562 57.7523H60.2455Z" fill="#EAAC9D"/>
<path d="M83.4722 54.6098V62.2749C83.4722 67.3244 80.0086 71.5665 75.3279 72.7546C75.324 72.7566 75.3201 72.7566 75.3163 72.7585C74.4662 72.973 73.5757 73.0869 72.6602 73.0869C66.6893 73.0869 61.8483 68.2458 61.8483 62.2749V54.6098C61.8483 48.6389 66.6893 43.7979 72.6602 43.7979C72.6796 43.7979 72.7008 43.7979 72.72 43.7998C73.6182 43.8037 74.4933 43.9176 75.3279 44.1301C75.3743 44.1417 75.4205 44.1533 75.465 44.1668C77.3233 44.6632 78.9845 45.6446 80.3058 46.964C82.263 48.9208 83.4722 51.6233 83.4722 54.6098Z" fill="#FFDDCE"/>
<path d="M75.3281 72.7546C75.3243 72.7566 75.3204 72.7566 75.3165 72.7585C74.4664 72.973 73.5759 73.0869 72.6605 73.0869C66.6895 73.0869 61.8485 68.2459 61.8485 62.2749V54.6098C61.8485 48.6389 66.6895 43.7979 72.6605 43.7979C73.58 43.7979 74.4743 43.9137 75.3281 44.1301C70.6476 45.318 67.184 49.5582 67.184 54.6098V62.2749C67.1838 67.3265 70.6474 71.5687 75.3281 72.7546Z" fill="#FFCBBE"/>
<path d="M69.8602 56.6122C69.102 56.6122 68.4873 55.9975 68.4873 55.2393V52.3792C68.4873 51.6211 69.102 51.0063 69.8602 51.0063C70.6183 51.0063 71.233 51.6211 71.233 52.3792V55.2393C71.233 55.9975 70.6183 56.6122 69.8602 56.6122Z" fill="#21386B"/>
<path d="M78.326 56.6122C77.5678 56.6122 76.9531 55.9975 76.9531 55.2393V52.3792C76.9531 51.6211 77.5678 51.0063 78.326 51.0063C79.0841 51.0063 79.6988 51.6211 79.6988 52.3792V55.2393C79.6988 55.9975 79.0841 56.6122 78.326 56.6122Z" fill="#21386B"/>
<path d="M75.4652 44.1673V59.4164H72.7202V43.8003C73.6185 43.8042 74.4935 43.9181 75.3281 44.1306C75.3743 44.1422 75.4207 44.1538 75.4652 44.1673Z" fill="#FFCBBE"/>
<path d="M73.9758 66.6861H71.1156C70.5298 66.6861 70.0548 66.2112 70.0548 65.6253C70.0548 65.0394 70.5298 64.5645 71.1156 64.5645H73.9758C74.5617 64.5645 75.0366 65.0394 75.0366 65.6253C75.0366 66.2112 74.5617 66.6861 73.9758 66.6861Z" fill="#FFCBBE"/>
<path d="M75.7372 57.4004H73.5254C72.6758 57.4004 71.9873 58.0891 71.9873 58.9385C71.9873 59.788 72.676 60.4766 73.5254 60.4766H75.7372C76.5868 60.4766 77.2753 59.7879 77.2753 58.9385C77.2753 58.0889 76.5868 57.4004 75.7372 57.4004Z" fill="#FFCBBE"/>
<path d="M74.7795 49.5188H62.9615V43.0093H79.9204V44.3779C79.9204 47.2171 77.6187 49.5188 74.7795 49.5188Z" fill="#FFE07D"/>
<path d="M63.2783 59.0264C62.5071 59.0264 61.8822 58.4013 61.8822 57.6303V46.8008H64.6745V57.6303C64.6745 58.4013 64.0494 59.0264 63.2783 59.0264Z" fill="#FFC250"/>
<path d="M65.7276 43.0109C65.2409 44.309 64.9742 45.7153 64.9742 47.1834V49.5188L61.8821 50.3754L62.0833 41.1895L65.7276 43.0109Z" fill="#FFC250"/>
<path d="M69.0369 46.4748V31.9774C69.0369 24.9497 63.3398 19.2524 56.3119 19.2524C49.2842 19.2524 43.5869 24.9495 43.5869 31.9774V46.3054C42.116 46.4636 40.9706 47.7086 40.9706 49.2216C40.9706 50.8417 42.284 52.155 43.904 52.155H68.0061C69.6263 52.155 70.9395 50.8416 70.9395 49.2216C70.9397 47.9642 70.1485 46.8921 69.0369 46.4748Z" fill="#26457D"/>
<path d="M51.3968 49.2204C51.3968 50.0309 51.7247 50.7641 52.2552 51.2959C52.7857 51.8264 53.5199 52.1542 54.3294 52.1542H43.904C43.0945 52.1542 42.3603 51.8264 41.8298 51.2959C41.2993 50.7641 40.9702 50.0311 40.9702 49.2204C40.9702 47.7076 42.1158 46.4631 43.5869 46.3046V31.977C43.5869 28.4628 45.0114 25.2822 47.3145 22.9791C49.6164 20.676 52.798 19.2515 56.3124 19.2515C57.3149 19.2515 58.2901 19.3671 59.2258 19.5865C56.8821 20.136 54.7877 21.3329 53.1415 22.9793C50.8384 25.2823 49.4139 28.4628 49.4139 31.9772V46.3047C47.9438 46.4631 51.3968 47.7076 51.3968 49.2204Z" fill="#21386B"/>
<path d="M65.8792 64.2782V84.8728C63.8788 85.9222 61.7888 86.8257 59.6249 87.5692C57.2273 88.3919 54.74 89.0194 52.1806 89.429C49.8427 89.8052 47.4433 90.0003 45 90.0003H44.9138V64.2782C44.9138 60.0806 48.3169 56.6792 52.5128 56.6792H58.2802C62.4761 56.6792 65.8792 60.0806 65.8792 64.2782Z" fill="#78C2A4"/>
<path d="M57.5683 56.6792C53.3724 56.6792 49.9693 60.0806 49.9693 64.2782V89.7278C48.338 89.9089 46.6787 90.0003 45 90.0003H44.9138V64.2782C44.9138 60.0806 48.3152 56.6792 52.5128 56.6792H57.5683Z" fill="#66B394"/>
<path d="M58.8008 48.1953V57.1976C58.8008 58.1473 58.4157 59.0067 57.7934 59.6281C57.1722 60.2504 56.3126 60.6355 55.3629 60.6355C54.6938 60.6355 54.0696 60.445 53.5425 60.1136C52.5714 59.5065 51.9249 58.427 51.9249 57.1976V48.1953H58.8008Z" fill="#FFDDCE"/>
<path d="M58.8008 48.1953V56.775C58.3325 56.8409 57.8551 56.8743 57.3687 56.8743C55.3709 56.8743 53.505 56.3067 51.9249 55.3236V48.1953H58.8008Z" fill="#FFCBBE"/>
<path d="M53.5425 51.6899V60.1136C52.5714 59.5064 51.9249 58.4269 51.9249 57.1975V51.6899H53.5425Z" fill="#FFCBBE"/>
<path d="M68.352 42.2071H45.5075C44.0285 42.2071 42.8295 41.0081 42.8295 39.5291C42.8295 38.0501 44.0285 36.8511 45.5075 36.8511H68.352C69.8311 36.8511 71.0301 38.0501 71.0301 39.5291C71.0299 41.0083 69.8309 42.2071 68.352 42.2071Z" fill="#FFCBBE"/>
<path d="M45.5075 40.6732C44.8766 40.6732 44.3635 40.1599 44.3635 39.5292C44.3635 38.8984 44.8768 38.3853 45.5075 38.3853H68.352C68.9829 38.3853 69.496 38.8985 69.496 39.5292C69.496 40.1601 68.9827 40.6732 68.352 40.6732H45.5075Z" fill="#EAAC9D"/>
<path d="M67.6979 34.9741V44.9947C67.6979 50.6988 63.0738 55.3241 57.3685 55.3241C51.6644 55.3241 47.0391 50.6988 47.0391 44.9947V34.9741C47.0391 34.4269 47.082 33.8894 47.1642 33.3648H55.7067C56.304 33.3648 56.8809 33.2778 57.4256 33.1145C58.4378 32.8141 59.339 32.2539 60.0493 31.5112C60.5811 30.958 61.0077 30.3036 61.2974 29.5801C62.1867 31.7974 64.3539 33.365 66.8895 33.365H67.5726C67.6549 33.8892 67.6979 34.4269 67.6979 34.9741Z" fill="#FFDDCE"/>
<path d="M59.9849 54.989C59.1493 55.2084 58.2719 55.324 57.3683 55.324C51.6641 55.324 47.0388 50.6987 47.0388 44.9946V34.974C47.0388 34.4268 47.0817 33.8893 47.164 33.3647H52.3961C52.3138 33.8893 52.2709 34.4268 52.2709 34.974V44.9946C52.2709 49.7952 55.5468 53.8315 59.9849 54.989Z" fill="#FFCBBE"/>
<path d="M60.0495 31.5107V42.2621H57.4258V33.114C58.4378 32.8136 59.339 32.2534 60.0495 31.5107Z" fill="#FFCBBE"/>
<path d="M60.3086 40.3369H58.1954C57.3838 40.3369 56.7258 40.9949 56.7258 41.8064C56.7258 42.618 57.3838 43.276 58.1954 43.276H60.3086C61.1202 43.276 61.7781 42.618 61.7781 41.8064C61.7781 40.9949 61.1202 40.3369 60.3086 40.3369Z" fill="#FFCBBE"/>
<path d="M53.0238 36.5785C52.3228 36.5785 51.622 36.3116 51.0883 35.778C50.7624 35.4521 50.7624 34.9237 51.0883 34.5979C51.4142 34.272 51.9426 34.272 52.2683 34.5979C52.6849 35.0145 53.3626 35.0145 53.7792 34.5979C54.1051 34.272 54.6335 34.272 54.9592 34.5979C55.2851 34.9238 55.2851 35.4522 54.9592 35.778C54.4257 36.3116 53.7247 36.5785 53.0238 36.5785Z" fill="#26457D"/>
<path d="M64.4119 36.5783C63.711 36.5783 63.01 36.3115 62.4764 35.778C62.1505 35.4521 62.1505 34.9237 62.4764 34.5979C62.8023 34.272 63.3305 34.272 63.6564 34.5979C64.073 35.0145 64.7508 35.0145 65.1672 34.5979C65.4931 34.272 66.0215 34.272 66.3472 34.5979C66.6731 34.9238 66.6731 35.4522 66.3472 35.778C65.8137 36.3115 65.1127 36.5783 64.4119 36.5783Z" fill="#26457D"/>
<path d="M62.0118 46.726C60.2568 48.481 57.4012 48.481 55.6462 46.726C55.3437 46.4235 55.3437 45.9329 55.6462 45.6302C55.9487 45.3277 56.4393 45.3277 56.742 45.6302C57.8929 46.781 59.7653 46.781 60.9159 45.6302C61.2185 45.3277 61.7091 45.3277 62.0118 45.6302C62.3145 45.9329 62.3145 46.4235 62.0118 46.726Z" fill="#FFCBBE"/>
<path d="M54.6933 39.5839C53.9689 39.5839 53.3816 38.9966 53.3816 38.2722V35.5397C53.3816 34.8153 53.9689 34.228 54.6933 34.228C55.4177 34.228 56.0049 34.8153 56.0049 35.5397V38.2722C56.0048 38.9966 55.4177 39.5839 54.6933 39.5839Z" fill="#21386B"/>
<path d="M62.7818 39.5839C62.0574 39.5839 61.4701 38.9966 61.4701 38.2722V35.5397C61.4701 34.8153 62.0574 34.228 62.7818 34.228C63.5062 34.228 64.0935 34.8153 64.0935 35.5397V38.2722C64.0935 38.9966 63.5062 39.5839 62.7818 39.5839Z" fill="#21386B"/>
<path d="M39.913 29.9399V39.3623C39.913 40.3564 39.51 41.256 38.8585 41.9062C38.2083 42.5577 37.3086 42.9608 36.3146 42.9608C35.6145 42.9608 34.9609 42.7612 34.4093 42.4144C33.3929 41.779 32.7162 40.6492 32.7162 39.3623V29.9399H39.913Z" fill="#FFDDCE"/>
<path d="M39.913 29.9399V38.9201C39.4229 38.989 38.9232 39.024 38.414 39.024C36.323 39.024 34.3699 38.4298 32.7162 37.4008V29.9399H39.913Z" fill="#FFCBBE"/>
<path d="M34.4093 33.5981V42.4148C33.3929 41.7794 32.7162 40.6496 32.7162 39.3627V33.5981H34.4093Z" fill="#FFCBBE"/>
<path d="M34.0516 4.75293C30.1814 4.75293 26.9425 7.44643 26.1014 11.0607L24.1841 9.14342C22.818 10.5096 22.5443 12.5532 23.3604 14.1922H21.0479C21.0479 16.6111 23.0089 18.5721 25.4278 18.5721C25.5828 18.5721 25.7359 18.5639 25.8868 18.5481V19.3226H39.2569V4.75293H34.0516Z" fill="#21386B"/>
<path d="M26.3389 19.8594C24.6284 21.5699 24.6284 24.343 26.3389 26.0534C28.0495 27.7639 30.8226 27.7639 32.5329 26.0534" fill="#26457D"/>
<path d="M49.9098 23.6729H25.9992C24.4512 23.6729 23.1962 22.418 23.1962 20.8699C23.1962 19.322 24.4511 18.0669 25.9992 18.0669H49.9098C51.4578 18.0669 52.7128 19.3218 52.7128 20.8699C52.7128 22.418 51.4579 23.6729 49.9098 23.6729Z" fill="#FFCBBE"/>
<path d="M25.9993 22.0672C25.3391 22.0672 24.8019 21.53 24.8019 20.8698C24.8019 20.2096 25.3391 19.6724 25.9993 19.6724H49.91C50.5702 19.6724 51.1074 20.2096 51.1074 20.8698C51.1074 21.53 50.5702 22.0672 49.91 22.0672H25.9993Z" fill="#EAAC9D"/>
<path d="M38.4139 37.4014C32.443 37.4014 27.6027 32.5611 27.6027 26.5901V18.925C27.6027 12.9541 32.443 8.11377 38.4139 8.11377H44.4392C47.0824 8.11377 49.2251 10.2565 49.2251 12.8998V26.5901C49.2251 32.5611 44.3848 37.4014 38.4139 37.4014Z" fill="#FFDDCE"/>
<path d="M41.0819 37.0696C40.2287 37.2863 39.3354 37.4009 38.4144 37.4009C32.4431 37.4009 27.6027 32.5615 27.6027 26.5902V18.9251C27.6027 12.9538 32.4431 8.11328 38.4144 8.11328H43.7482C37.7781 8.11328 32.9374 12.9538 32.9374 18.9251V26.5902C32.9374 31.642 36.4007 35.8827 41.0819 37.0696Z" fill="#FFCBBE"/>
<path d="M35.6138 20.9266C34.8557 20.9266 34.241 20.3119 34.241 19.5538V16.6937C34.241 15.9355 34.8557 15.3208 35.6138 15.3208C36.372 15.3208 36.9867 15.9355 36.9867 16.6937V19.5538C36.9867 20.3121 36.372 20.9266 35.6138 20.9266Z" fill="#21386B"/>
<path d="M44.0798 20.9266C43.3216 20.9266 42.7069 20.3119 42.7069 19.5538V16.6937C42.7069 15.9355 43.3216 15.3208 44.0798 15.3208C44.8379 15.3208 45.4526 15.9355 45.4526 16.6937V19.5538C45.4526 20.3121 44.8379 20.9266 44.0798 20.9266Z" fill="#21386B"/>
<path d="M41.2196 23.7297H38.4739V9.48613C38.4739 8.72799 39.0886 8.11328 39.8467 8.11328C40.6049 8.11328 41.2196 8.72799 41.2196 9.48613V23.7297Z" fill="#FFCBBE"/>
<path d="M39.7297 31.0011H36.8696C36.2837 31.0011 35.8087 30.5261 35.8087 29.9402C35.8087 29.3544 36.2837 28.8794 36.8696 28.8794H39.7297C40.3156 28.8794 40.7905 29.3544 40.7905 29.9402C40.7905 30.5261 40.3156 31.0011 39.7297 31.0011Z" fill="#FFCBBE"/>
<path d="M30.5206 6.12811V7.75812C28.4175 8.5284 26.9169 10.5476 26.9169 12.9175V18.067H27.6738C30.3835 18.067 32.58 15.8704 32.58 13.1608V9.86521H34.884C36.8972 9.86521 38.5292 8.23326 38.5292 6.22004V6.12793H30.5206V6.12811Z" fill="#21386B"/>
<path d="M48.3466 5.89957L50.7903 3.45586C48.4864 1.15189 44.751 1.15189 42.4471 3.45586V0C39.1888 0 36.5475 2.64129 36.5475 5.89957C36.5475 9.15785 39.1888 11.7991 42.4471 11.7991H54.2464C54.2462 8.54104 51.6049 5.89957 48.3466 5.89957Z" fill="#26457D"/>
<path d="M41.4912 21.7148H39.2793C38.4297 21.7148 37.7412 22.4036 37.7412 23.2529C37.7412 24.1025 38.4299 24.791 39.2793 24.791H41.4912C42.3407 24.791 43.0292 24.1023 43.0292 23.2529C43.0292 22.4034 42.3405 21.7148 41.4912 21.7148Z" fill="#FFCBBE"/>
<path d="M18.823 9.70605H14.9521C8.38437 9.70605 3.0603 15.0301 3.0603 21.5978V33.1368C3.0603 39.7045 8.38437 45.0286 14.9521 45.0286H18.823C25.3907 45.0286 30.7147 39.7045 30.7147 33.1368V21.5978C30.7147 15.0301 25.3907 9.70605 18.823 9.70605Z" fill="#98695E"/>
<path d="M20.6776 44.8821C20.0729 44.9786 19.453 45.0269 18.8231 45.0269H14.9521C8.38419 45.0269 3.0603 39.703 3.0603 33.1351V21.5969C3.0603 15.029 8.38419 9.70508 14.9521 9.70508H18.8233C19.4531 9.70508 20.0731 9.75342 20.6778 9.84992C16.3972 10.5182 12.8736 13.4719 11.3939 17.4242C10.9072 18.7223 10.6405 20.1286 10.6405 21.5967V33.135C10.6403 39.0734 14.9906 43.9935 20.6776 44.8821Z" fill="#664545"/>
<path d="M27.2338 56.8723V83.6209C26.1897 83.1727 25.1649 85.4156 24.1629 84.8918C23.3877 84.4875 22.6248 84.0604 21.876 83.6104C14.8939 79.4215 9.14238 73.3904 5.29102 66.1922V56.8723C5.29102 52.4795 8.85234 48.9199 13.2434 48.9199H19.2814C23.6725 48.9199 27.2338 52.4795 27.2338 56.8723Z" fill="#FFE07D"/>
<path d="M18.5361 48.918C14.1434 48.918 10.582 52.4793 10.582 56.8721V73.9879C8.55703 71.5902 6.7834 68.9799 5.29102 66.192V56.8721C5.29102 52.4793 8.85059 48.918 13.2434 48.918H18.5361Z" fill="#FFC250"/>
<path d="M19.8253 40.0396V49.462C19.8253 50.456 19.4222 51.3557 18.7707 52.0059C18.1205 52.6573 17.2209 53.0604 16.2268 53.0604C15.5267 53.0604 14.8731 52.8609 14.3215 52.5141C13.3052 51.8786 12.6284 50.7489 12.6284 49.462V40.0396H19.8253Z" fill="#FFDDCE"/>
<path d="M19.8253 40.04V49.0202C19.3352 49.0891 18.8354 49.1241 18.3262 49.1241C16.2353 49.1241 14.2822 48.5299 12.6284 47.5009V40.04H19.8253Z" fill="#FFCBBE"/>
<path d="M14.3215 43.6978V52.5144C13.3052 51.879 12.6284 50.7492 12.6284 49.4623V43.6978H14.3215Z" fill="#FFCBBE"/>
<path d="M29.8222 33.772H5.91141C4.36348 33.772 3.1084 32.5171 3.1084 30.969C3.1084 29.4211 4.3633 28.166 5.91141 28.166H29.8221C31.37 28.166 32.6251 29.4209 32.6251 30.969C32.6251 32.5171 31.3702 33.772 29.8222 33.772Z" fill="#FFCBBE"/>
<path d="M5.91153 32.1663C5.2513 32.1663 4.71411 31.6291 4.71411 30.9689C4.71411 30.3087 5.2513 29.7715 5.91153 29.7715H29.8222C30.4824 29.7715 31.0196 30.3087 31.0196 30.9689C31.0196 31.6291 30.4824 32.1663 29.8222 32.1663H5.91153Z" fill="#EAAC9D"/>
<path d="M29.1383 29.0239V36.689C29.1383 41.7385 25.6747 45.9806 20.994 47.1687C20.9902 47.1706 20.9863 47.1706 20.9824 47.1726C20.1323 47.387 19.2418 47.5009 18.3264 47.5009C12.3554 47.5009 7.5144 42.6599 7.5144 36.689V29.0239C7.5144 23.0529 12.3554 18.2119 18.3264 18.2119C18.3457 18.2119 18.367 18.2119 18.3861 18.2138C19.2844 18.2177 20.1594 18.3316 20.994 18.5441C21.0404 18.5557 21.0867 18.5673 21.1311 18.5809C22.9895 19.0773 24.6506 20.0587 25.972 21.3781C27.9289 23.3349 29.1383 26.0373 29.1383 29.0239Z" fill="#FFDDCE"/>
<path d="M20.994 47.1687C20.9901 47.1706 20.9863 47.1706 20.9824 47.1726C20.1323 47.387 19.2418 47.5009 18.3264 47.5009C12.3554 47.5009 7.5144 42.6599 7.5144 36.689V29.0239C7.5144 23.0529 12.3554 18.2119 18.3264 18.2119C19.2459 18.2119 20.1402 18.3278 20.994 18.5441C16.3135 19.7321 12.8499 23.9723 12.8499 29.0239V36.689C12.8499 41.7406 16.3135 45.9827 20.994 47.1687Z" fill="#FFCBBE"/>
<path d="M15.526 31.0262C14.7679 31.0262 14.1532 30.4115 14.1532 29.6534V26.7933C14.1532 26.0351 14.7679 25.4204 15.526 25.4204C16.2842 25.4204 16.8989 26.0351 16.8989 26.7933V29.6534C16.8989 30.4117 16.2844 31.0262 15.526 31.0262Z" fill="#21386B"/>
<path d="M23.992 31.0262C23.2339 31.0262 22.6191 30.4115 22.6191 29.6534V26.7933C22.6191 26.0351 23.2339 25.4204 23.992 25.4204C24.7501 25.4204 25.3648 26.0351 25.3648 26.7933V29.6534C25.3648 30.4117 24.7503 31.0262 23.992 31.0262Z" fill="#21386B"/>
<path d="M21.1314 18.5814V33.8304H18.3864V18.2144C19.2846 18.2182 20.1596 18.3321 20.9942 18.5446C21.0405 18.5563 21.0869 18.5679 21.1314 18.5814Z" fill="#FFCBBE"/>
<path d="M21.4034 31.8145H19.1915C18.342 31.8145 17.6534 32.5032 17.6534 33.3525C17.6534 34.2021 18.3422 34.8906 19.1915 34.8906H21.4034C22.2529 34.8906 22.9415 34.2019 22.9415 33.3525C22.9415 32.503 22.2529 31.8145 21.4034 31.8145Z" fill="#FFCBBE"/>
<path d="M20.4454 23.9329H8.62744V17.4233H25.5863V18.792C25.5863 21.6312 23.2846 23.9329 20.4454 23.9329Z" fill="#98695E"/>
<path d="M8.94439 33.4404C8.17324 33.4404 7.54834 32.8154 7.54834 32.0444V21.2148H10.3406V32.0444C10.3406 32.8154 9.71555 33.4404 8.94439 33.4404Z" fill="#664545"/>
<path d="M11.3938 17.425C10.907 18.7231 10.6404 20.1294 10.6404 21.5975V23.9329L7.54822 24.7895L7.74949 15.6035L11.3938 17.425Z" fill="#664545"/>
<path d="M22.5523 38.6939C20.7973 40.4489 17.9417 40.4489 16.1867 38.6939C15.8842 38.3913 15.8842 37.9007 16.1867 37.598C16.4892 37.2954 16.9799 37.2955 17.2825 37.598C18.4334 38.7489 20.3058 38.7489 21.4565 37.598C21.759 37.2955 22.2496 37.2955 22.5523 37.598C22.855 37.9006 22.855 38.3912 22.5523 38.6939Z" fill="#FFCBBE"/>
<path d="M35.1151 35.8345C26.8488 35.8345 20.1477 42.5356 20.1477 50.8019V63.6121C20.1477 68.8502 24.3941 73.0967 29.6323 73.0967H40.5981C45.8362 73.0967 50.0827 68.8504 50.0827 63.6121V50.8019C50.0826 42.5356 43.3814 35.8345 35.1151 35.8345Z" fill="#9D66D5"/>
<path d="M38.302 73.0967H29.6325C24.3937 73.0967 20.1477 68.8507 20.1477 63.6119V50.8025C20.1477 42.5366 26.8488 35.8354 35.1148 35.8354C36.6235 35.8354 38.08 36.0576 39.4515 36.473C33.299 38.3314 28.8192 44.0434 28.8192 50.8025V63.6119C28.8192 68.8507 33.0652 73.0967 38.302 73.0967Z" fill="#734A9B"/>
<path d="M45.1283 81.777V90H44.9138C37.4255 89.9859 30.3697 88.142 24.1628 84.8918V81.777C24.1628 77.5811 27.566 74.1797 31.7619 74.1797H37.5292C41.7251 74.1797 45.1283 77.5811 45.1283 81.777Z" fill="#DD5790"/>
<path d="M36.8173 74.1777C32.6214 74.1777 29.2183 77.5791 29.2183 81.7768V87.1521C27.4798 86.5 25.7923 85.7441 24.1628 84.8916V81.7768C24.1628 77.5791 27.5642 74.1777 31.7619 74.1777H36.8173Z" fill="#9D549B"/>
<path d="M38.0497 65.6953V74.6976C38.0497 75.6473 37.6646 76.5067 37.0423 77.1281C36.4211 77.7504 35.5615 78.1355 34.6118 78.1355C33.9427 78.1355 33.3185 77.945 32.7914 77.6136C31.8204 77.0065 31.1738 75.927 31.1738 74.6976V65.6953H38.0497Z" fill="#FFDDCE"/>
<path d="M38.0496 65.6953V74.275C37.5813 74.3409 37.1039 74.3743 36.6175 74.3743C34.6197 74.3743 32.7538 73.8067 31.1737 72.8236V65.6953H38.0496Z" fill="#FFCBBE"/>
<path d="M32.7914 69.1904V77.614C31.8204 77.0069 31.1738 75.9274 31.1738 74.698V69.1904H32.7914Z" fill="#FFCBBE"/>
<path d="M47.6008 59.7076H24.7563C23.2773 59.7076 22.0782 58.5086 22.0782 57.0296C22.0782 55.5506 23.2773 54.3516 24.7563 54.3516H47.6008C49.0798 54.3516 50.2788 55.5506 50.2788 57.0296C50.2788 58.5086 49.0798 59.7076 47.6008 59.7076Z" fill="#FFCBBE"/>
<path d="M24.7564 58.1732C24.1255 58.1732 23.6124 57.6599 23.6124 57.0292C23.6124 56.3984 24.1257 55.8853 24.7564 55.8853H47.6009C48.2318 55.8853 48.7449 56.3985 48.7449 57.0292C48.7449 57.6601 48.2316 58.1732 47.6009 58.1732H24.7564Z" fill="#EAAC9D"/>
<path d="M46.9467 52.4736V62.4942C46.9467 68.1983 42.3226 72.8236 36.6173 72.8236C30.9132 72.8236 26.2878 68.1983 26.2878 62.4942V52.4736C26.2878 51.9264 26.3307 51.3889 26.413 50.8643H34.9554C35.5528 50.8643 36.1297 50.7773 36.6744 50.614C37.6866 50.3136 38.5878 49.7534 39.2981 49.0107C39.8299 48.4575 40.2565 47.8031 40.5462 47.0796C41.4354 49.2969 43.6027 50.8645 46.1383 50.8645H46.8214C46.9038 51.3889 46.9467 51.9264 46.9467 52.4736Z" fill="#FFDDCE"/>
<path d="M39.234 72.489C38.3983 72.7084 37.521 72.824 36.6173 72.824C30.9132 72.824 26.2878 68.1987 26.2878 62.4946V52.474C26.2878 51.9268 26.3307 51.3893 26.413 50.8647H31.6451C31.5629 51.3893 31.52 51.9268 31.52 52.474V62.4946C31.52 67.2952 34.7958 71.3315 39.234 72.489Z" fill="#FFCBBE"/>
<path d="M39.2984 49.0107V59.762H36.6747V50.614C37.6867 50.3136 38.5879 49.7534 39.2984 49.0107Z" fill="#FFCBBE"/>
<path d="M39.5575 57.8369H37.4443C36.6327 57.8369 35.9747 58.4949 35.9747 59.3064C35.9747 60.118 36.6327 60.776 37.4443 60.776H39.5575C40.3691 60.776 41.027 60.118 41.027 59.3064C41.027 58.4947 40.3691 57.8369 39.5575 57.8369Z" fill="#FFCBBE"/>
<path d="M32.2727 54.0785C31.5717 54.0785 30.8709 53.8116 30.3372 53.278C30.0113 52.9521 30.0113 52.4237 30.3372 52.0979C30.6631 51.772 31.1915 51.772 31.5172 52.0979C31.9338 52.5145 32.6115 52.5145 33.0281 52.0979C33.3539 51.772 33.8823 51.772 34.2081 52.0979C34.534 52.4238 34.534 52.9522 34.2081 53.278C33.6747 53.8115 32.9736 54.0785 32.2727 54.0785Z" fill="#734A9B"/>
<path d="M43.6609 54.0788C42.9599 54.0788 42.2591 53.8119 41.7254 53.2784C41.3995 52.9525 41.3995 52.4241 41.7254 52.0984C42.0513 51.7725 42.5795 51.7725 42.9054 52.0984C43.322 52.515 43.9998 52.515 44.4162 52.0984C44.7421 51.7725 45.2705 51.7725 45.5963 52.0984C45.9221 52.4243 45.9221 52.9527 45.5963 53.2784C45.0628 53.8119 44.3617 54.0788 43.6609 54.0788Z" fill="#734A9B"/>
<path d="M36.314 66.5446C33.8319 66.5446 31.8127 64.5254 31.8127 62.0434C31.8127 61.6156 32.1597 61.2686 32.5876 61.2686C33.0154 61.2686 33.3624 61.6156 33.3624 62.0434C33.3624 63.6708 34.6864 64.9948 36.3138 64.9948C36.7417 64.9948 37.0886 65.3418 37.0886 65.7696C37.0888 66.1976 36.7418 66.5446 36.314 66.5446Z" fill="#FFCBBE"/>
<path d="M33.9421 57.0841C33.2177 57.0841 32.6304 56.4968 32.6304 55.7724V53.0397C32.6304 52.3153 33.2177 51.728 33.9421 51.728C34.6664 51.728 35.2537 52.3153 35.2537 53.0397V55.7724C35.2537 56.4968 34.6664 57.0841 33.9421 57.0841Z" fill="#21386B"/>
<path d="M42.0308 57.0841C41.3064 57.0841 40.7191 56.4968 40.7191 55.7724V53.0397C40.7191 52.3153 41.3064 51.728 42.0308 51.728C42.7552 51.728 43.3425 52.3153 43.3425 53.0397V55.7724C43.3425 56.4968 42.7552 57.0841 42.0308 57.0841Z" fill="#21386B"/>
<path d="M74.4685 31.063C83.0463 31.063 90 24.1093 90 15.5315C90 6.95369 83.0463 0 74.4685 0C65.8907 0 58.937 6.95369 58.937 15.5315C58.937 24.1093 65.8907 31.063 74.4685 31.063Z" fill="#DD5790"/>
<path d="M74.4685 28.6021C81.6872 28.6021 87.5391 22.7502 87.5391 15.5315C87.5391 8.31283 81.6872 2.46094 74.4685 2.46094C67.2498 2.46094 61.3979 8.31283 61.3979 15.5315C61.3979 22.7502 67.2498 28.6021 74.4685 28.6021Z" fill="#F9F6F6"/>
<path d="M74.4685 28.6021C81.6872 28.6021 87.5391 22.7502 87.5391 15.5315C87.5391 8.31283 81.6872 2.46094 74.4685 2.46094C67.2498 2.46094 61.3979 8.31283 61.3979 15.5315C61.3979 22.7502 67.2498 28.6021 74.4685 28.6021Z" fill="#F9F6F6"/>
<path d="M77.1864 28.3179C76.3092 28.5042 75.4004 28.6026 74.4688 28.6026C67.2618 28.6026 61.3977 22.7386 61.3977 15.5315C61.3977 8.32451 67.2618 2.46045 74.4688 2.46045C75.4004 2.46045 76.3092 2.55889 77.1864 2.74521C71.2801 3.99854 66.8346 9.25615 66.8346 15.5315C66.8346 21.8069 71.2801 27.0646 77.1864 28.3179Z" fill="#DDDAEC"/>
<path d="M67.5766 22.4234C66.7026 21.5494 66.7026 20.1323 67.5766 19.2583L78.195 8.63986C79.069 7.76588 80.4862 7.76588 81.3602 8.63986C82.2341 9.51385 82.2341 10.931 81.3602 11.805L70.7417 22.4234C69.8678 23.2974 68.4506 23.2974 67.5766 22.4234Z" fill="#DD5790"/>
<path d="M67.5766 8.63986C68.4506 7.76588 69.8678 7.76588 70.7417 8.63986L81.3602 19.2583C82.2341 20.1323 82.2341 21.5494 81.3602 22.4234C80.4862 23.2974 79.069 23.2974 78.195 22.4234L67.5766 11.805C66.7026 10.931 66.7026 9.51385 67.5766 8.63986Z" fill="#DD5790"/>
</svg>
